<?xml version="1.0" standalone="no"?>
<!DOCTYPE svg PUBLIC "-//W3C//DTD SVG 20010904//EN"
 "http://www.w3.org/TR/2001/REC-SVG-20010904/DTD/svg10.dtd">
<svg version="1.0" xmlns="http://www.w3.org/2000/svg"
 width="512.000000pt" height="512.000000pt" viewBox="0 0 512.000000 512.000000"
 preserveAspectRatio="xMidYMid meet">
<metadata>
Created by potrace 1.14, written by Peter Selinger 2001-2017
</metadata>
<g transform="translate(0.000000,512.000000) scale(0.100000,-0.100000)"
fill="#000000" stroke="none">
<path d="M2320 5109 c-491 -47 -981 -246 -1366 -557 -599 -482 -954 -1224
-954 -1992 0 -577 204 -1155 568 -1606 482 -599 1224 -954 1992 -954 577 0
1155 204 1606 568 599 482 954 1224 954 1992 0 577 -204 1155 -568 1606 -433
538 -1071 879 -1767 944 -125 11 -340 11 -465 -1z m-611 -1475 c83 -20 212
-80 271 -125 25 -19 50 -38 56 -41 6 -4 28 15 49 43 50 66 113 109 159 109
l36 0 0 -285 0 -286 -57 3 -57 3 -26 70 c-55 145 -129 258 -221 337 -206 174
-451 147 -548 -61 -21 -47 -26 -71 -26 -146 0 -76 4 -98 26 -145 53 -113 187
-225 449 -375 164 -94 344 -217 399 -274 125 -127 172 -227 179 -382 7 -165
-32 -273 -141 -387 -99 -103 -225 -166 -407 -205 -137 -29 -373 -28 -485 2
-94 25 -224 86 -279 130 -21 17 -42 31 -46 31 -3 0 -21 -20 -38 -44 -46 -64
-121 -116 -166 -116 l-36 0 0 285 0 286 60 -3 61 -3 33 -82 c115 -286 327
-441 587 -430 114 5 184 32 249 97 65 65 93 137 98 247 4 81 2 97 -20 145 -50
106 -145 185 -408 338 -340 196 -463 298 -558 463 -62 107 -87 279 -58 401 49
207 236 355 506 401 109 19 281 18 359 -1z m2006 -4 c94 -24 200 -75 274 -131
50 -38 55 -40 64 -23 5 11 38 47 74 82 59 57 67 62 109 62 l44 0 0 -285 0
-285 -58 0 -59 0 -31 83 c-47 123 -98 203 -187 293 -89 90 -133 117 -232 140
-131 30 -244 -4 -342 -104 -104 -107 -170 -268 -207 -507 -26 -168 -26 -619
-1 -783 37 -233 93 -372 195 -483 91 -99 177 -140 306 -147 112 -6 194 15 295
75 142 85 261 260 284 417 l11 76 33 0 c33 0 33 -1 33 -46 0 -143 -93 -322
-227 -436 -69 -59 -214 -131 -298 -149 -80 -17 -289 -15 -395 4 -425 76 -702
373 -765 822 -19 131 -19 379 0 503 62 412 283 697 620 799 150 46 334 55 460
23z"/>
</g>
</svg>
